<?xml version="1.0" standalone="no"?>
<!DOCTYPE svg PUBLIC "-//W3C//DTD SVG 20010904//EN"
 "http://www.w3.org/TR/2001/REC-SVG-20010904/DTD/svg10.dtd">
<svg version="1.0" xmlns="http://www.w3.org/2000/svg"
 width="792.000000pt" height="792.000000pt" viewBox="0 0 792.000000 792.000000"
 preserveAspectRatio="xMidYMid meet">
<metadata>
Created by potrace 1.11, written by Peter Selinger 2001-2013
</metadata>
<g transform="translate(0.000000,792.000000) scale(0.100000,-0.100000)"
fill="#000000" stroke="none">
<path d="M5890 7909 c0 -7 -3 -10 -6 -6 -15 15 -68 -20 -108 -72 -42 -55 -116
-167 -116 -176 0 -2 -13 -26 -28 -52 -59 -102 -113 -248 -136 -369 -12 -66
-14 -252 -3 -299 25 -102 72 -226 89 -233 4 -2 8 -9 8 -16 0 -8 13 -29 30 -47
16 -19 35 -46 41 -61 6 -16 17 -29 23 -29 66 -7 166 21 201 56 115 113 220
291 271 461 23 78 27 108 28 239 0 83 -2 166 -6 185 -4 19 -10 46 -13 60 -17
84 -68 208 -120 290 -14 22 -22 40 -18 40 4 0 -2 6 -12 14 -11 8 -36 13 -55
12 -19 -2 -43 1 -52 6 -12 6 -18 5 -18 -3z m11 -406 c0 -5 2 -17 4 -28 16 -85
20 -174 11 -246 -13 -103 -66 -244 -116 -309 l-19 -25 -11 30 c-22 55 -33 203
-18 231 2 5 4 16 3 24 -1 8 5 32 12 53 6 20 10 37 8 37 -3 0 6 24 18 53 13 28
24 55 25 60 5 23 64 127 72 127 6 0 10 -3 11 -7z"/>
<path d="M4877 7756 c-34 -18 -57 -41 -57 -55 0 -6 -4 -11 -8 -11 -10 0 -91
-168 -122 -255 -33 -90 -79 -268 -87 -338 -13 -104 -7 -432 7 -432 1 0 3 -9 5
-20 13 -72 47 -171 91 -260 65 -134 157 -265 186 -265 7 0 21 -7 31 -14 21
-17 69 -12 108 11 15 9 48 46 72 83 53 78 81 123 82 130 1 3 10 25 22 50 62
137 92 264 100 425 6 143 -4 249 -37 390 -37 157 -130 383 -210 511 -30 48
-134 76 -183 50z m73 -425 c0 -9 4 -21 8 -26 16 -18 65 -193 78 -280 9 -59 10
-277 2 -320 -12 -62 -41 -170 -48 -180 -4 -5 -10 -22 -14 -37 -3 -16 -10 -28
-15 -28 -11 0 -66 132 -85 205 -35 137 -40 305 -13 425 2 8 7 33 11 55 4 22
11 51 16 65 5 14 16 53 26 87 16 57 34 75 34 34z"/>
<path d="M7028 7455 c-2 -1 -30 -5 -63 -8 -144 -14 -297 -85 -435 -201 -123
-103 -235 -346 -242 -523 -2 -63 42 -34 -363 -243 -99 -51 -243 -125 -320
-165 -77 -40 -184 -95 -237 -123 -54 -27 -104 -55 -113 -62 -8 -7 -15 -9 -15
-6 0 4 -13 -2 -30 -14 -16 -12 -30 -18 -30 -13 0 4 -4 4 -8 -2 -4 -5 -61 -38
-127 -71 -66 -34 -183 -94 -260 -134 -77 -41 -167 -87 -200 -103 -33 -16 -90
-47 -127 -69 -60 -34 -68 -42 -68 -69 0 -26 15 -65 31 -79 3 -3 20 -26 38 -52
26 -40 37 -48 62 -48 26 0 134 43 149 60 3 3 79 43 170 90 91 46 195 100 232
120 38 19 137 70 220 114 149 77 262 135 491 255 61 32 164 85 227 117 63 32
127 66 143 77 15 10 27 15 27 11 0 -3 6 -2 13 4 6 5 75 42 151 82 94 49 153
74 180 76 74 4 182 29 200 46 6 4 18 8 27 8 10 0 19 3 21 8 2 4 26 22 55 40
145 92 282 331 319 557 3 17 9 41 13 55 4 14 9 57 10 97 3 79 -13 122 -52 148
-20 13 -81 27 -89 20z m-143 -312 c-2 -10 -4 -18 -5 -18 -1 0 -3 -10 -6 -23
-14 -75 -91 -208 -161 -280 -39 -39 -111 -81 -139 -82 -15 0 -9 64 12 127 35
104 104 186 217 256 67 41 87 46 82 20z"/>
<path d="M3532 6923 c-57 -20 -112 -75 -144 -143 -28 -61 -36 -100 -53 -256
-3 -27 -23 -68 -78 -159 -80 -133 -224 -333 -331 -460 -197 -235 -509 -531
-741 -702 -69 -51 -70 -52 -90 -33 -29 27 -86 49 -126 48 -21 0 -73 -21 -139
-56 -58 -30 -118 -62 -135 -70 -16 -9 -32 -18 -35 -21 -3 -4 -27 -18 -55 -33
-27 -14 -70 -37 -95 -50 -25 -14 -70 -39 -100 -55 -30 -17 -98 -54 -150 -83
-52 -29 -124 -69 -160 -88 -105 -57 -169 -102 -198 -141 -15 -20 -30 -38 -33
-41 -16 -12 -50 -95 -62 -147 -27 -117 -13 -185 65 -342 34 -69 58 -126 52
-128 -6 -2 -39 -22 -74 -46 -102 -67 -121 -126 -73 -224 45 -89 154 -294 180
-335 13 -21 21 -38 17 -38 -3 0 3 -12 13 -27 10 -16 24 -39 31 -53 19 -37 59
-62 106 -67 34 -4 55 2 120 37 43 22 79 40 80 38 1 -2 26 -47 56 -101 48 -87
90 -137 162 -192 18 -14 106 -51 142 -59 33 -8 140 -9 171 -2 41 9 110 37 163
66 l55 30 154 -152 153 -152 -61 -22 c-63 -23 -138 -69 -203 -125 -34 -30
-166 -190 -166 -202 0 -2 -22 -42 -48 -88 -55 -96 -97 -195 -107 -254 -9 -57
-13 -207 -5 -229 10 -30 -7 -114 -35 -171 -33 -68 -109 -147 -174 -179 -28
-15 -53 -26 -56 -26 -3 0 -11 -4 -18 -10 -12 -11 -93 -55 -207 -112 -36 -18
-67 -35 -70 -38 -3 -3 -17 -11 -31 -18 -14 -8 -32 -26 -41 -40 -17 -32 -24
-108 -10 -125 10 -13 50 -90 309 -587 36 -69 85 -161 108 -205 24 -44 58 -109
76 -145 49 -97 66 -110 140 -110 64 0 54 -4 264 110 28 15 102 56 165 90 63
34 135 74 160 88 25 13 83 45 130 70 47 25 102 56 122 69 21 13 40 23 44 23 3
0 31 15 62 33 31 18 86 45 122 61 124 54 135 59 210 94 136 63 234 111 335
167 55 30 145 77 200 103 259 125 442 258 549 397 98 129 120 281 57 405 -17
33 -40 70 -50 81 -18 20 -18 21 2 72 15 39 20 75 21 144 0 82 -3 98 -32 155
-31 64 -68 110 -112 141 -21 14 -21 19 -13 88 12 91 1 159 -38 224 -33 55
-104 113 -174 141 -28 12 -45 25 -43 34 3 27 -14 103 -34 150 -11 25 -41 65
-67 90 -60 57 -129 82 -219 79 -70 -2 -222 -43 -234 -63 -4 -6 -8 -8 -8 -3 0
10 -64 -23 -172 -88 l-86 -53 -118 166 c-65 92 -121 169 -126 170 -4 2 -8 10
-8 18 0 8 -4 14 -8 14 -5 0 -14 11 -20 24 -12 28 -14 27 128 104 41 22 85 50
98 62 46 43 59 106 41 204 -3 15 4 22 33 30 20 6 40 14 44 19 4 4 13 7 20 7 7
0 25 5 41 12 15 6 33 12 38 13 6 2 57 18 115 36 58 18 110 34 115 35 6 1 73
18 150 37 140 35 288 67 335 72 14 2 54 8 90 14 36 5 88 13 115 16 28 3 61 7
74 10 32 6 280 18 366 18 177 -1 219 -6 255 -28 45 -28 165 -85 189 -90 10 -2
34 -7 52 -12 39 -11 100 -10 146 1 67 16 142 132 169 261 21 104 2 394 -36
545 -5 19 -14 58 -20 85 -12 50 -27 97 -56 180 -25 71 -82 88 -155 47 -61 -34
-104 -56 -110 -57 -19 -1 -99 -61 -105 -79 -13 -38 -13 -80 -1 -121 6 -22 12
-44 12 -50 1 -5 7 -30 14 -55 14 -47 18 -64 26 -115 3 -16 8 -37 10 -45 2 -8
6 -37 10 -63 5 -46 5 -48 -15 -37 -11 6 -78 68 -148 138 -120 119 -208 224
-320 384 l-32 46 31 51 c32 51 57 137 53 181 -9 105 -35 215 -53 230 -3 3 -15
21 -26 41 -73 134 -201 223 -335 233 -28 2 -55 8 -60 12 -11 13 -70 170 -70
188 0 8 -4 16 -9 18 -6 2 -12 14 -14 28 -2 14 -7 32 -10 40 -26 68 -79 291
-92 385 -3 23 -7 51 -10 63 -2 12 -1 22 4 22 10 0 111 -90 186 -165 54 -53
179 -201 258 -304 73 -94 70 -94 190 -32 179 93 235 130 232 154 -4 31 -16 57
-26 57 -5 0 -9 5 -9 10 0 11 -136 193 -210 281 -62 73 -256 268 -304 304 -22
17 -47 37 -55 45 -27 25 -142 96 -201 124 -107 51 -209 65 -288 39z"/>
<path d="M6761 6408 c-83 -30 -107 -60 -104 -132 2 -46 7 -58 39 -90 20 -20
38 -36 41 -36 3 0 18 -9 33 -20 38 -27 124 -48 181 -43 103 7 172 60 178 133
3 53 -14 90 -75 152 -55 57 -188 73 -293 36z"/>
<path d="M6238 6055 c-2 -2 -28 -5 -58 -8 -64 -7 -109 -15 -130 -24 -8 -3 -22
-7 -30 -9 -60 -12 -229 -98 -246 -125 -13 -21 -11 -113 2 -141 18 -34 113
-129 170 -169 202 -139 469 -171 740 -88 137 42 188 84 187 158 -1 61 -35 115
-139 218 -71 70 -194 146 -256 157 -13 3 -23 5 -23 7 0 6 -210 30 -217 24z
m194 -288 c92 -44 87 -57 -24 -61 -71 -3 -169 16 -242 47 l-49 21 34 11 c19 7
77 11 129 11 82 -1 103 -5 152 -29z"/>
<path d="M5358 5677 c-36 -18 -73 -39 -82 -46 -9 -8 -16 -11 -16 -7 0 3 -18
-5 -40 -19 -22 -14 -40 -22 -40 -18 0 5 -4 3 -8 -3 -4 -6 -86 -51 -182 -101
-429 -222 -402 -196 -344 -316 19 -39 34 -77 34 -84 0 -17 31 -31 59 -27 13 3
72 30 130 60 58 31 129 68 156 83 28 14 52 28 55 31 4 5 83 46 245 129 28 14
53 29 56 34 3 5 9 8 13 7 3 0 38 16 76 36 104 54 138 123 99 202 -21 42 -71
72 -117 72 -15 0 -57 -15 -94 -33z"/>
<path d="M5569 5382 c-14 -2 -42 -18 -62 -36 -34 -31 -35 -35 -31 -87 2 -30 8
-63 14 -74 5 -11 21 -48 35 -83 87 -213 312 -400 598 -496 42 -14 91 -28 108
-31 18 -3 35 -8 39 -10 8 -5 63 -16 100 -20 14 -1 41 -5 60 -9 19 -3 60 -9 90
-12 77 -8 84 -9 96 -16 5 -4 27 8 48 25 32 27 39 40 43 80 5 40 0 58 -27 115
-156 318 -435 542 -780 624 -92 21 -267 37 -331 30z m307 -287 c37 -8 43 -10
77 -23 16 -7 31 -12 33 -12 17 0 110 -50 169 -91 73 -51 185 -159 164 -159
-44 0 -243 77 -314 122 -80 51 -189 154 -179 170 3 4 9 6 13 4 4 -3 21 -8 37
-11z"/>
</g>
</svg>
