<svg xmlns="http://www.w3.org/2000/svg" viewBox="0 0 1663.89 820.53"><g id="Dots_Right" data-name="Dots Right"><path d="M137,105.27c-4.77,8.3-17.87,12-25.56,7.34-4.58-2.82-7.5-21.67-4.19-27.12,4-6.54,14.19-8.72,21.43-4.55C136.59,85.49,141,98.32,137,105.27Z" style="fill:#acc87a;fill-rule:evenodd"/><path d="M42.23,61.09C50.66,65.81,54,74.42,50,81.17c-4.61,7.74-14.6,10.59-21.82,6.22-6-3.65-8.41-15.18-4.44-21.68C27.35,59.78,36,57.61,42.23,61.09Z" style="fill:#483b18;fill-rule:evenodd"/><path d="M63.37,155.37c-7.31-4.58-10-14.27-5.78-20.89s14.49-8.71,21.53-4.61A13.21,13.21,0,0,1,83.28,149C76.94,158.42,71.18,160.28,63.37,155.37Z" style="fill:#483b18;fill-rule:evenodd"/><path d="M51.37,403.37c-7.31-4.58-10-14.27-5.78-20.89s14.49-8.71,21.53-4.61A13.21,13.21,0,0,1,71.28,397C64.94,406.42,59.18,408.28,51.37,403.37Z" style="fill:#483b18;fill-rule:evenodd"/><path d="M133.23,15.28a10.1,10.1,0,0,0-.76-8.18c-2.82-5.41-9.3-8.36-14.47-6.58a8.08,8.08,0,0,0-5.53,7.37A6.73,6.73,0,0,0,108.23,10c-3.08,3.52-1,10,4.54,14.42s13.55,2.26,16.41-1.45C132.76,18.32,133.23,15.28,133.23,15.28Z" style="fill:#483b18;fill-rule:evenodd"/><path d="M26.44,325.89a10.1,10.1,0,0,0-.76-8.18c-2.82-5.41-9.3-8.36-14.47-6.58a8.06,8.06,0,0,0-5.53,7.37,6.7,6.7,0,0,0-4.24,2.12c-3.08,3.52-1,10,4.54,14.42s13.55,2.26,16.4-1.45C26,328.93,26.44,325.89,26.44,325.89Z" style="fill:#483b18;fill-rule:evenodd"/><path d="M6.56,140.25a10.15,10.15,0,0,0,7,4.27c6,1,12.26-2.48,13.92-7.69A8.07,8.07,0,0,0,24.88,128a6.81,6.81,0,0,0,.82-4.67c-1-4.58-7.38-6.81-14.28-5s-9.9,9.53-8.62,14C4.41,138.06,6.56,140.25,6.56,140.25Z" style="fill:#acc87a;fill-rule:evenodd"/><path d="M1442.91,718.14c7.95-5.33,21.36-2.89,26.16,4.74,2.87,4.55-2.88,22.74-8.26,26.16-6.46,4.11-16.58,1.54-21.22-5.4C1434.5,736,1436.25,722.59,1442.91,718.14Z" style="fill:#acc87a;fill-rule:evenodd"/><path d="M1508.28,799.72c-5.47-8-4.63-17.16,2-21.43,7.56-4.9,17.78-3,22.33,4.09,3.8,6,.8,17.34-5.63,21.4C1521,807.49,1512.31,805.59,1508.28,799.72Z" style="fill:#483b18;fill-rule:evenodd"/><path d="M1531.1,705.83c4.52,7.34,2.63,17.23-4.08,21.29s-16.85,1.38-21.34-5.41a13.2,13.2,0,0,1,4.73-19C1520.28,697.08,1526.26,698,1531.1,705.83Z" style="fill:#483b18;fill-rule:evenodd"/><path d="M1651.73,488.81c4.52,7.35,2.63,17.23-4.08,21.3s-16.85,1.38-21.34-5.41a13.2,13.2,0,0,1,4.73-19C1640.91,480.06,1646.9,481,1651.73,488.81Z" style="fill:#483b18;fill-rule:evenodd"/><path d="M1406.4,800.47a10.1,10.1,0,0,0-2.94,7.67c.13,6.1,4.63,11.62,10,12.32a8.08,8.08,0,0,0,8.22-4.17,6.72,6.72,0,0,0,4.74,0c4.33-1.79,5.37-8.48,2.33-14.94s-11.15-8-15.35-6C1408.17,798,1406.4,800.47,1406.4,800.47Z" style="fill:#483b18;fill-rule:evenodd"/><path d="M1639.75,569.32a10.1,10.1,0,0,0-2.94,7.67c.13,6.1,4.63,11.62,10,12.32a8.08,8.08,0,0,0,8.22-4.17,6.72,6.72,0,0,0,4.74,0c4.33-1.79,5.38-8.48,2.33-14.94s-11.15-8-15.35-6C1641.52,566.81,1639.75,569.32,1639.75,569.32Z" style="fill:#483b18;fill-rule:evenodd"/><path d="M1575.33,744.56a10.15,10.15,0,0,0-4.41-6.94c-5-3.53-12.09-3.21-15.88.72a8.08,8.08,0,0,0-1.56,9.09,6.73,6.73,0,0,0-2.81,3.81c-1.14,4.55,3.6,9.38,10.61,10.78s13.09-4.16,13.94-8.77C1576.29,747.47,1575.33,744.56,1575.33,744.56Z" style="fill:#acc87a;fill-rule:evenodd"/></g></svg>