<?xml version="1.0" encoding="utf-8"?>
<!-- Generator: Adobe Illustrator 25.4.1, SVG Export Plug-In . SVG Version: 6.00 Build 0)  -->
<svg version="1.1" id="Camada_1" xmlns="http://www.w3.org/2000/svg" xmlns:xlink="http://www.w3.org/1999/xlink" x="0px" y="0px"
	 viewBox="0 0 1663.9 820.5" style="enable-background:new 0 0 1663.9 820.5;" xml:space="preserve">
<style type="text/css">
	.st0{fill-rule:evenodd;clip-rule:evenodd;fill:#ACC87A;}
	.st1{fill-rule:evenodd;clip-rule:evenodd;fill:#483B18;}
</style>
<path class="st0" d="M107.8,50.6c-3.8,6.6-14.3,9.6-20.4,5.9c-3.7-2.3-6-17.3-3.3-21.6c3.2-5.2,11.3-7,17.1-3.6
	C107.5,34.8,111,45,107.8,50.6z"/>
<path class="st1" d="M45.6,48.1c6.7,3.8,9.4,10.6,6.2,16c-3.7,6.2-11.7,8.5-17.4,5c-4.8-2.9-6.7-12.1-3.5-17.3
	C33.8,47.1,40.7,45.3,45.6,48.1z"/>
<path class="st1" d="M53,125.5c-5.8-3.7-8-11.4-4.6-16.7c3.4-5.3,11.6-7,17.2-3.7c5,2.9,6.8,9.4,3.9,14.4c-0.2,0.3-0.4,0.6-0.6,0.9
	C63.9,128,59.3,129.5,53,125.5z"/>
<path class="st1" d="M41,336.1c-5.8-3.7-8-11.4-4.6-16.7s11.6-7,17.2-3.7c5,2.9,6.8,9.4,3.9,14.4c-0.2,0.3-0.4,0.6-0.6,0.9
	C51.8,338.5,47.2,340,41,336.1z"/>
<path class="st1" d="M78.8,12.2c0.7-2.2,0.5-4.5-0.6-6.5C75.9,1.3,70.7-1,66.6,0.4c-2.6,0.8-4.3,3.2-4.4,5.9C60.9,6.4,59.7,7,58.8,8
	c-2.5,2.8-0.8,8,3.6,11.5s10.8,1.8,13.1-1.2C78.4,14.6,78.8,12.2,78.8,12.2z"/>
<path class="st1" d="M21.1,238.7c0.7-2.2,0.5-4.5-0.6-6.5c-2.3-4.3-7.4-6.7-11.5-5.3c-2.6,0.8-4.3,3.2-4.4,5.9
	c-1.3,0.1-2.5,0.7-3.4,1.7c-2.5,2.8-0.8,8,3.6,11.5s10.8,1.8,13.1-1.2C20.8,241.1,21.1,238.7,21.1,238.7z"/>
<path class="st0" d="M5.2,112c1.3,1.9,3.3,3.1,5.6,3.4c4.8,0.8,9.8-2,11.1-6.1c0.8-2.6,0-5.4-2.1-7c0.7-1.1,0.9-2.4,0.7-3.7
	c-0.8-3.7-5.9-5.4-11.4-4s-7.9,7.6-6.9,11.2C3.5,110.3,5.2,112,5.2,112z"/>
<path class="st0" d="M1531.5,720.4c5.9-3.9,15.7-2.1,19.3,3.5c2.1,3.4-2.1,16.8-6.1,19.3c-4.8,3-12.2,1.1-15.6-4
	C1525.3,733.6,1526.5,723.7,1531.5,720.4z"/>
<path class="st1" d="M1575.3,770.3c-4-5.9-3.4-12.7,1.5-15.8c5.6-3.6,13.1-2.2,16.5,3c2.8,4.4,0.6,12.8-4.2,15.8
	C1584.7,776,1578.3,774.6,1575.3,770.3z"/>
<path class="st1" d="M1586.1,692.3c3.3,5.4,1.9,12.7-3,15.7s-12.4,1-15.7-4c-3-4.5-1.8-10.5,2.7-13.5c0.3-0.2,0.5-0.3,0.8-0.5
	C1578.1,685.9,1582.5,686.6,1586.1,692.3z"/>
<path class="st1" d="M1653.2,553.9c3.3,5.4,1.9,12.7-3,15.7c-4.9,3-12.4,1-15.7-4c-3-4.5-1.8-10.5,2.7-13.5c0.3-0.2,0.5-0.3,0.8-0.5
	C1645.2,547.5,1649.6,548.1,1653.2,553.9z"/>
<path class="st1" d="M1474,805.7c-1.5,1.5-2.3,3.5-2.2,5.7c0.1,4.5,3.4,8.6,7.4,9.1c2.5,0.3,4.9-0.9,6.1-3.1c1.1,0.4,2.4,0.4,3.5,0
	c3.2-1.3,4-6.3,1.7-11c-2.2-4.8-8.2-5.9-11.3-4.4C1475.3,803.9,1474,805.7,1474,805.7z"/>
<path class="st1" d="M1646.1,635.3c-1.5,1.5-2.3,3.5-2.2,5.7c0.1,4.5,3.4,8.6,7.4,9.1c2.5,0.3,4.9-0.9,6.1-3.1
	c1.1,0.4,2.4,0.4,3.5,0c3.2-1.3,4-6.3,1.7-11c-2.2-4.8-8.2-5.9-11.3-4.4C1647.4,633.5,1646.1,635.3,1646.1,635.3z"/>
<path class="st0" d="M1624.7,729.6c-0.3-2.1-1.5-3.9-3.3-5.1c-3.7-2.6-8.9-2.4-11.7,0.5c-1.7,1.8-2.2,4.4-1.2,6.7
	c-1,0.7-1.7,1.7-2.1,2.8c-0.8,3.4,2.7,6.9,7.8,7.9c5.2,1,9.7-3.1,10.3-6.5C1625.4,731.7,1624.7,729.6,1624.7,729.6z"/>
</svg>
